<?xml version="1.0" standalone="no"?>
<!DOCTYPE svg PUBLIC "-//W3C//DTD SVG 20010904//EN"
 "http://www.w3.org/TR/2001/REC-SVG-20010904/DTD/svg10.dtd">
<svg version="1.0" xmlns="http://www.w3.org/2000/svg"
 width="696.000000pt" height="696.000000pt" viewBox="0 0 696.000000 696.000000"
 preserveAspectRatio="xMidYMid meet">
<metadata>
Created by potrace 1.14, written by Peter Selinger 2001-2017
</metadata>
<g transform="translate(0.000000,696.000000) scale(0.100000,-0.100000)"
fill="#000000" stroke="none">
<path d="M6638 6703 c-136 -137 -723 -721 -1303 -1298 -580 -578 -1055 -1053
-1055 -1055 0 -3 119 -5 263 -5 261 1 344 -6 502 -39 142 -30 338 -135 451
-243 201 -191 295 -473 243 -733 -10 -54 -65 -205 -81 -225 -5 -5 -22 -30 -38
-55 -72 -112 -264 -275 -361 -305 -25 -8 -40 -44 -27 -68 5 -9 30 -27 56 -39
137 -62 279 -191 358 -324 44 -76 86 -184 108 -284 16 -69 19 -282 5 -335 -4
-16 -10 -44 -12 -62 -3 -18 -15 -61 -26 -95 -67 -200 -191 -353 -377 -465 -53
-32 -217 -97 -269 -107 -55 -10 -90 -16 -150 -25 -33 -5 -494 -10 -1036 -10
-931 -2 -977 -1 -998 17 l-23 18 0 987 c0 855 -2 986 -15 976 -18 -16 -932
-925 -2006 -1996 -769 -768 -847 -849 -845 -875 1 -17 11 -36 22 -44 17 -12
542 -14 3465 -14 2493 0 3448 3 3457 11 11 9 14 607 14 3465 0 3400 0 3454
-19 3464 -11 5 -28 10 -37 10 -10 0 -129 -111 -266 -247z"/>
<path d="M3626 3695 c-19 -20 -18 8 -20 -363 -1 -279 0 -305 17 -323 10 -10
25 -19 35 -20 137 -6 950 2 991 11 147 28 253 120 286 245 20 78 11 194 -22
264 -37 80 -148 166 -243 187 -19 4 -258 9 -531 11 -447 4 -498 2 -513 -12z"/>
<path d="M3713 2350 c-45 -3 -87 -10 -94 -17 -15 -15 -20 -683 -6 -723 4 -13
14 -28 20 -32 7 -4 240 -8 518 -8 460 1 513 2 573 19 36 10 66 16 66 12 0 -3
4 -1 8 4 4 6 24 19 45 30 66 34 135 121 155 195 50 187 -5 347 -155 451 -24
17 -43 27 -43 23 0 -3 -7 -1 -14 6 -22 17 -114 36 -192 39 -151 5 -804 6 -881
1z"/>
</g>
</svg>
